<svg xmlns="http://www.w3.org/2000/svg" viewBox="0 0 24 24" fill="currentColor" class="w-6 h-6">
  <path fill-rule="evenodd" d="M21.752 15.002A9.718 9.718 0 0112.002 22a9.718 9.718 0 01-6.998-2.748 9.718 9.718 0 01-2.748-6.998 9.718 9.718 0 012.748-6.998A9.718 9.718 0 0112.002 2c.343 0 .683.02 1.02.058a.75.75 0 01.53 1.28 7.5 7.5 0 009.11 9.11.75.75 0 011.28.53c.038.337.058.677.058 1.02a9.718 9.718 0 01-2.748 6.998zM12.002 3.5a8.218 8.218 0 00-5.922 2.453A8.218 8.218 0 003.627 11.875a8.218 8.218 0 002.453 5.922A8.218 8.218 0 0012.002 20.25a8.218 8.218 0 005.922-2.453 9.001 9.001 0 01-7.721-7.721A8.218 8.218 0 0012.002 3.5z" clip-rule="evenodd" />
</svg>
