<svg xmlns="http://www.w3.org/2000/svg" viewBox="0 0 24 24" fill="currentColor" class="w-6 h-6">
  <path d="M12 18a6 6 0 100-12 6 6 0 000 12z" />
  <path fill-rule="evenodd" d="M12 2.25a.75.75 0 01.75.75v1.5a.75.75 0 01-1.5 0V3a.75.75 0 01.75-.75zm0 16.5a.75.75 0 01.75.75v1.5a.75.75 0 01-1.5 0v-1.5a.75.75 0 01.75-.75zm9-7.5a.75.75 0 01-.75.75h-1.5a.75.75 0 010-1.5h1.5a.75.75 0 01.75.75zm-16.5 0a.75.75 0 01-.75.75H3a.75.75 0 010-1.5h1.5a.75.75 0 01.75.75zm13.061 5.811a.75.75 0 010 1.06l-1.06 1.061a.75.75 0 01-1.061-1.06l1.06-1.061a.75.75 0 011.061 0zm-10.602 0a.75.75 0 010 1.06l-1.061 1.061a.75.75 0 11-1.06-1.06l1.06-1.061a.75.75 0 011.061 0zm10.602-10.602a.75.75 0 011.06 0l1.061 1.06a.75.75 0 11-1.06 1.061l-1.061-1.06a.75.75 0 010-1.061zm-10.602 0a.75.75 0 011.061 0l1.061 1.06a.75.75 0 11-1.061 1.061l-1.06-1.06a.75.75 0 010-1.061z" clip-rule="evenodd" />
</svg>
